<svg width="40" height="40" viewBox="0 0 40 40" fill="none" xmlns="http://www.w3.org/2000/svg">
<rect x="1.45123" y="8.75376" width="36.6694" height="10.7585" rx="4.85" transform="rotate(-2.4644 1.45123 8.75376)" fill="#FAD85E" stroke="black" stroke-width="0.3"/>
<rect x="7.22567" y="19.4028" width="26.4961" height="10.7585" rx="4.85" transform="rotate(5.87081 7.22567 19.4028)" fill="#FFFBE3" stroke="black" stroke-width="0.3"/>
<path d="M6.33594 11.7336L7.74831 11.6732L7.84971 14.0682C7.85937 14.3241 7.90886 14.5197 7.9994 14.6549C8.08933 14.7901 8.21306 14.8547 8.3712 14.848C8.5221 14.842 8.63497 14.7678 8.70921 14.6259C8.78465 14.4847 8.81785 14.2855 8.80819 14.0296L8.70679 11.6346L10.1264 11.5742L10.2278 13.9692C10.255 14.6132 10.1101 15.1196 9.79323 15.4878C9.47756 15.8566 9.01703 16.054 8.41225 16.0793C7.80867 16.1047 7.33546 15.9477 6.99263 15.6061C6.6498 15.2651 6.4645 14.7726 6.43734 14.1286L6.33594 11.7336Z" fill="#FF6953"/>
<path d="M10.8768 15.9044L10.6934 11.5393L11.886 11.4886L13.1487 13.4611L13.0642 11.45L14.4838 11.3896L14.6673 15.7451L13.4746 15.7861L12.2047 13.8233L12.2892 15.8441L10.8768 15.9044Z" fill="#FF6953"/>
<path d="M16.4632 11.3047L16.6466 15.6601L15.2343 15.7205L15.0508 11.365L16.4632 11.3047Z" fill="#FF6953"/>
<path d="M20.8368 12.3379L19.6538 12.3886L19.7866 15.5272L18.3742 15.5876L18.2414 12.449L17.0487 12.4997L16.998 11.2829L20.7861 11.1211L20.8368 12.3379Z" fill="#FF6953"/>
<path d="M24.333 14.6995L22.8676 14.7623L22.6599 15.4093L21.291 15.4672L22.7372 11.0418L24.1665 10.9814L25.9627 15.2693L24.5866 15.3272L24.333 14.6995ZM23.9057 13.6734L23.5146 12.4928L23.208 13.7024L23.9057 13.6734Z" fill="#FF6953"/>
<path d="M29.5185 13.2335C29.842 13.4701 30.0146 13.8528 30.0376 14.3803L30.0665 15.095L28.7773 15.1505L28.7387 14.2524C28.7224 13.8697 28.5335 13.6536 28.1713 13.6053L27.6498 13.6271L27.715 15.194L26.3026 15.2543L26.1191 10.8989L28.42 10.8023C28.8962 10.7818 29.268 10.8862 29.5354 11.1162C29.804 11.3449 29.9482 11.6836 29.9676 12.1326C29.9881 12.6203 29.8384 12.9873 29.5185 13.2335ZM28.3017 12.5503C28.5799 12.5394 28.7151 12.426 28.7073 12.2099C28.6976 11.9896 28.5534 11.8852 28.2751 11.896L27.5774 11.925L27.6039 12.5793L28.3017 12.5503Z" fill="#FF6953"/>
<path d="M34.5184 10.5459L33.1978 13.1847L33.2726 14.9617L31.8506 15.0196L31.7757 13.2427L30.2402 10.7246L31.7299 10.6618L32.4348 12.0452L33.0288 10.6087L34.5184 10.5459Z" fill="#FF6953"/>
<path d="M6.33276 11.7309L7.74453 11.6711L7.84593 14.0673C7.8568 14.3239 7.90689 14.52 7.99743 14.6564C8.08797 14.7922 8.2111 14.8562 8.36803 14.8496C8.51892 14.8435 8.63239 14.7693 8.70784 14.6268C8.78329 14.4832 8.81588 14.2834 8.80502 14.0269L8.70362 11.6307L10.1232 11.5709L10.2246 13.9671C10.2518 14.6124 10.1069 15.1194 9.79006 15.4882C9.47438 15.8563 9.01506 16.0537 8.41088 16.0791C7.8067 16.1044 7.33229 15.9469 6.98885 15.6065C6.64602 15.2654 6.46072 14.7729 6.43356 14.1271L6.33276 11.7309ZM10.8741 15.9046L10.69 11.5377L11.8845 11.4876L13.1466 13.4601L13.0614 11.4466L14.4811 11.3868L14.6645 15.7447L13.4713 15.7863L12.2007 13.8229L12.2858 15.8455L10.8741 15.9046ZM16.4596 11.3029L16.6437 15.6614L15.2313 15.7211L15.0478 11.3627L16.4596 11.3029ZM20.8428 12.3405L19.6567 12.3906L19.7895 15.5286L18.3772 15.5883L18.245 12.4497L17.0517 12.5004L17.0004 11.2806L20.7909 11.1207L20.8428 12.3405ZM24.3302 14.6999L22.866 14.7614L22.6577 15.4073L21.2888 15.4652L22.7344 11.0386L24.1643 10.9782L25.9593 15.2685L24.5831 15.3264L24.3302 14.6999ZM23.9017 13.6702L23.5118 12.4902L23.2046 13.6998L23.9017 13.6702ZM29.515 13.232C29.8391 13.4692 30.0123 13.8519 30.0347 14.38L30.0648 15.0946L28.775 15.1495L28.737 14.2514C28.7207 13.8682 28.5311 13.6521 28.1684 13.6038L27.6451 13.6255L27.7115 15.1942L26.2997 15.254L26.1156 10.8955L28.4171 10.7984C28.8933 10.7784 29.2657 10.8835 29.5343 11.114C29.8029 11.3446 29.9465 11.6832 29.9652 12.1311C29.9858 12.6187 29.8355 12.9857 29.515 13.232ZM28.2982 12.5505C28.577 12.5391 28.7122 12.4256 28.7032 12.2101C28.6941 11.9892 28.5499 11.8854 28.2704 11.8969L27.5739 11.9264L27.601 12.5801L28.2982 12.5505ZM34.5168 10.5412L33.1968 13.1813L33.2722 14.9594L31.8514 15.0198L31.776 13.241L30.2375 10.7217L31.7283 10.6589L32.4327 12.0435L33.0272 10.604L34.5168 10.5412Z" stroke="black" stroke-width="0.171756"/>
<path d="M15.2098 23.3949L14.7486 27.731L13.3339 27.5789L13.5004 26.0193L12.5468 25.9203L12.3802 27.4799L10.9727 27.3302L11.4338 22.9941L12.8413 23.1438L12.6747 24.7035L13.6284 24.8025L13.795 23.2428L15.2098 23.3949Z" fill="#FF6953"/>
<path d="M18.2096 27.4558L16.7514 27.3013L16.452 27.9121L15.0879 27.7672L17.1714 23.6025L18.5935 23.7546L19.7379 28.2597L18.3665 28.1149L18.2096 27.4558ZM17.9392 26.3766L17.7243 25.1525L17.2439 26.3042L17.9392 26.3766Z" fill="#FF6953"/>
<path d="M22.7154 26.7436C22.6043 27.177 22.4015 27.378 22.107 27.3472C21.9265 27.3279 21.7955 27.2253 21.7134 27.0382C21.6313 26.8498 21.6072 26.5939 21.641 26.2704C21.676 25.9408 21.7533 25.6928 21.8728 25.5268C21.9935 25.3614 22.1438 25.2878 22.3243 25.3071C22.4558 25.3204 22.5633 25.3904 22.6454 25.5171C22.7287 25.6445 22.7769 25.8165 22.7902 26.0338L24.1736 25.959C24.1217 25.4169 23.9467 24.9836 23.6473 24.6601C23.3479 24.3353 22.9459 24.1458 22.4426 24.0927C21.8179 24.0269 21.3157 24.1699 20.936 24.5224C20.5576 24.8737 20.33 25.4073 20.2528 26.1231C20.1785 26.8347 20.2896 27.4039 20.586 27.83C20.8817 28.2568 21.3422 28.5024 21.9669 28.5688C22.4703 28.6219 22.9025 28.5205 23.2634 28.2646C23.6256 28.0075 23.8875 27.6212 24.0505 27.1058L22.7154 26.7436Z" fill="#FF6953"/>
<path d="M26.7422 29.0057L26.1627 27.6005L25.9044 27.9096L25.7982 28.9067L24.3906 28.757L24.8518 24.4209L26.2593 24.5706L26.112 25.9492L27.2299 24.672L28.6422 24.8241L27.1212 26.5286L28.2077 29.1626L26.7422 29.0057Z" fill="#FF6953"/>
<path d="M15.2069 23.3929L14.7458 27.7308L13.3328 27.5805L13.4988 26.0191L12.5446 25.9177L12.3786 27.4791L10.9728 27.3294L11.434 22.9921L12.8397 23.1412L12.6731 24.7039L13.628 24.8053L13.794 23.2426L15.2069 23.3929ZM18.2055 27.458L16.7485 27.3035L16.4467 27.9113L15.0844 27.7664L17.1674 23.6011L18.5906 23.7526L19.7338 28.2607L18.3637 28.1153L18.2055 27.458ZM17.9339 26.377L17.7221 25.1523L17.2398 26.3033L17.9339 26.377ZM22.7106 26.7439C22.6008 27.1767 22.398 27.3777 22.1022 27.3463C21.9236 27.327 21.7926 27.2244 21.7093 27.0379C21.6272 26.8502 21.6037 26.5943 21.6381 26.2701C21.6731 25.9406 21.7503 25.6937 21.8698 25.5283C21.9906 25.3624 22.1402 25.2887 22.3189 25.308C22.4523 25.3219 22.5603 25.3919 22.643 25.5175C22.7269 25.6436 22.7746 25.815 22.7861 26.0323L24.1719 25.9605C24.1182 25.4173 23.9419 24.9833 23.6432 24.6586C23.3444 24.3339 22.9442 24.1449 22.4408 24.0912C21.8161 24.0248 21.3139 24.1679 20.9337 24.5204C20.5546 24.8716 20.3265 25.4058 20.2504 26.1223C20.175 26.8339 20.2855 27.4031 20.5818 27.8292C20.8794 28.2559 21.3405 28.5022 21.9652 28.5686C22.468 28.6217 22.8995 28.5203 23.2599 28.2638C23.6208 28.0066 23.884 27.6203 24.05 27.1049L22.7106 26.7439ZM26.7425 29.0062L26.1631 27.6028L25.903 27.9076L25.7967 28.9054L24.3916 28.7557L24.8527 24.4184L26.2579 24.568L26.1112 25.9478L27.229 24.6713L28.6432 24.8216L27.1198 26.5291L28.2086 29.1619L26.7425 29.0062Z" stroke="black" stroke-width="0.171756"/>
</svg>
