<svg width="38" height="38" viewBox="0 0 38 38" fill="none" xmlns="http://www.w3.org/2000/svg">
<rect width="37" height="37" transform="translate(0.5 0.5)" fill="#FFFF00"/>
<path d="M21.218 24.2021L24.1141 21.9668H25.4638V22.7541L22.5677 24.9191H22.5114H22.5677L25.4638 27.1404V27.8715H24.1141L21.218 25.6502V24.2021Z" fill="#060600"/>
<path d="M17.0563 23.3086L19.4312 26.4652V27.9082H18.6646L16.2746 24.7516L13.9598 27.9082H13.1331V26.4652L15.508 23.3086H17.0563Z" fill="#060600"/>
<path d="M11.3467 21.1682V27.9413H9.66965V22.8452H6.2505V27.9413H4.57349V18.7422H6.2505V21.1682H11.3467Z" fill="#060600"/>
<path d="M29.0193 24.0577L32.0763 21.6914H33.5009V22.5248L30.4439 24.8168H30.3846H30.4439L33.5009 27.1682V27.9421H32.0763L29.0193 25.5907V24.0577Z" fill="#060600"/>
<path d="M28.973 27.9413H27.2502V18.7422H28.973V27.9413Z" fill="#060600"/>
<rect x="28.9014" y="24.0488" width="0.471751" height="1.53319" fill="#060600"/>
<path d="M7.96485 14.1562H4.57349V10.7649H5.41318V13.3166H7.12516V10.7649H7.96485V14.1562ZM12.8683 10.7649V14.1562H12.0287V11.6046H10.3167V14.1562H9.47698V10.7649H12.8683ZM15.2361 9.67247V10.3328H14.3964V9.67247H15.2361ZM14.3964 10.8138H15.2361V14.1562H14.3964V10.8138ZM17.5999 11.6046V13.3166H19.3119V14.1562H16.7603V9.65617H17.5999V10.7649H19.3119V11.6046H17.5999ZM24.2518 10.7567V14.1481H20.8278V12.11H23.3795V11.5557H20.8278V10.7567H24.2518ZM23.3795 13.3899V12.803H21.7001V13.3899H23.3795ZM28.4292 10.7649V12.4443H27.5569V11.6046H26.6275V14.1562H25.7552V10.7649H28.4292ZM33.238 14.1562L31.8195 15.5584H31.1592V15.0122L32.0478 14.1562H29.8466V10.7649H30.6863V13.3166H32.3983V10.7649H33.238V14.1562Z" fill="#060600"/>
</svg>